<svg width="400" height="250" viewBox="0 0 400 250" fill="none" xmlns="http://www.w3.org/2000/svg">
  <defs>
    <linearGradient id="bg" x1="0" y1="0" x2="1" y2="1">
      <stop offset="0%" stop-color="#f7f3e9"/>
      <stop offset="100%" stop-color="#e8dcc7"/>
    </linearGradient>
    <linearGradient id="paper" x1="0" y1="0" x2="1" y2="1">
      <stop offset="0%" stop-color="oklch(0.5 0.05 125)"/>
      <stop offset="100%" stop-color="oklch(0.75 0.09 130)"/>
    </linearGradient>
  </defs>

  <rect width="400" height="250" fill="url(#bg)"/>

  <rect x="80" y="50" width="240" height="150" rx="8" fill="white" stroke="url(#paper)" stroke-width="3"/>
  <rect x="90" y="70" width="100" height="6" rx="3" fill="url(#paper)" opacity="0.6"/>
  <rect x="90" y="90" width="180" height="4" rx="2" fill="url(#paper)" opacity="0.4"/>
  <rect x="90" y="105" width="160" height="4" rx="2" fill="url(#paper)" opacity="0.3"/>
  <rect x="90" y="120" width="170" height="4" rx="2" fill="url(#paper)" opacity="0.3"/>
  <rect x="90" y="135" width="140" height="4" rx="2" fill="url(#paper)" opacity="0.3"/>
  <rect x="90" y="150" width="160" height="4" rx="2" fill="url(#paper)" opacity="0.3"/>
  <rect x="90" y="165" width="80" height="4" rx="2" fill="url(#paper)" opacity="0.3"/>

  <circle cx="280" cy="90" r="25" fill="url(#paper)" opacity="0.2"/>
  <path d="M270 90 L275 95 L285 85" stroke="url(#paper)" stroke-width="3" fill="none"/>

  <rect x="100" y="210" width="80" height="20" rx="10" fill="url(#paper)" opacity="0.8"/>
</svg>
